#!OML:ASF F:\twosubjects\two\Thursday\Session 1\Rory.ASF
:FULLY-SPECIFIED
:DEGREES
489
root 11.0494 16.0094 10.7431 -169.912 -67.5237 159.847
lowerback 21.6349 2.61586 -2.20919
upperback 9.38329 1.92636 -2.22921
thorax -1.86891 0.544032 -1.54685
lowerneck -16.1773 -5.65754 -5.89925
upperneck -2.68076 -7.19435 11.9523
head 2.46422 -3.31128 4.09597
rclavicle 1.31198e-014 -1.35174e-014
rhumerus 63.0627 5.33033 -83.8497
rradius 21.565
rwrist -11.376
rhand -5.35271 -14.7099
rfingers 7.12502
rthumb 20.4545 -43.6525
lclavicle 1.31198e-014 -1.35174e-014
lhumerus -29.3489 -24.6456 93.6097
lradius 64.1192
lwrist -19.9015
lhand -9.52249 46.3866
lfingers 7.12502
lthumb 16.4434 75.7097
rfemur -36.0516 17.5127 -9.54974
rtibia 43.0011
rfoot -7.9889 2.78787
rtoes -36.967
lfemur -21.9575 6.50512 -3.19011
ltibia 49.6262
lfoot -13.3888 -2.72112
ltoes -19.2897
490
root 10.9633 16.0625 10.7299 -169.154 -67.9946 159.078
lowerback 21.3764 2.45438 -2.21352
upperback 9.25952 1.74344 -2.35901
thorax -1.87167 0.46665 -1.63585
lowerneck -16.2107 -5.71817 -5.77561
upperneck -2.56825 -7.31214 12.0859
head 2.51642 -3.36162 4.10476
rclavicle 2.98177e-016 -1.11319e-014
rhumerus 62.4654 4.98021 -84.5101
rradius 21.3774
rwrist -11.0445
rhand -5.58627 -14.9241
rfingers 7.12502
rthumb 20.23 -43.8906
lclavicle 2.98177e-016 -1.11319e-014
lhumerus -30.3749 -26.6449 94.9804
lradius 64.6214
lwrist -12.6081
lhand -19.2718 55.761
lfingers 7.12502
lthumb 7.04278 85.6238
rfemur -35.1781 17.5042 -9.59546
rtibia 42.6233
rfoot -8.33815 2.40275
rtoes -39.7421
lfemur -21.521 6.1968 -3.51569
ltibia 49.0112
lfoot -13.2825 -2.95546
ltoes -17.6169
491
root 10.8803 16.1142 10.708 -168.883 -68.3027 158.889
lowerback 21.0753 2.4261 -2.74703
upperback 9.04964 1.67283 -1.9504
thorax -1.97815 0.429064 -0.876781
lowerneck -16.1085 -5.81183 -6.33322
upperneck -2.45961 -7.33755 12.1497
head 2.55857 -3.36329 4.21282
rclavicle -4.9398e-014 3.37934e-014
rhumerus 61.8041 5.6458 -83.0897
rradius 21.4918
rwrist -12.2573
rhand -6.44087 -15.3748
rfingers 7.12502
rthumb 19.4085 -44.4262
lclavicle -4.9398e-014 3.37934e-014
lhumerus -30.5955 -25.9089 95.7334
lradius 64.0401
lwrist -11.9534
lhand -22.0249 66.3481
lfingers 7.12502
lthumb 4.38472 263.717
rfemur -34.4993 17.8288 -9.61041
rtibia 42.2218
rfoot -8.61623 2.31956
rtoes -39.9474
lfemur -21.086 6.15784 -3.57199
ltibia 48.4517
lfoot -13.2497 -3.34845
ltoes -16.6285
492
root 10.7948 16.1618 10.6887 -168.733 -68.5014 159.026
lowerback 20.5153 2.20116 -2.70253
upperback 8.79026 1.45578 -1.95151
thorax -1.97415 0.344071 -0.84461
lowerneck -16.0526 -5.88063 -6.63423
upperneck -2.11008 -7.41098 12.4709
head 2.69025 -3.37467 4.35062
rclavicle -2.08724e-015 2.50469e-014
rhumerus 61.0886 6.29725 -82.6372
rradius 21.573
rwrist -13.1099
rhand -7.09327 -15.7069
rfingers 7.12502
rthumb 18.7811 -44.8202
lclavicle -2.08724e-015 2.50469e-014
lhumerus -29.2061 -20.3033 92.6959
lradius 60.6589
lwrist -23.3643
lhand -6.02585 31.2618
lfingers 7.12502
lthumb 19.8075 420.273
rfemur -34.0699 18.2774 -9.6589
rtibia 41.7749
rfoot -8.84815 2.09029
rtoes -37.6967
lfemur -20.8267 6.18944 -3.56165
ltibia 47.9243
lfoot -13.436 -3.49003
ltoes -17.2872
493
root 10.7072 16.2072 10.6737 -168.391 -68.6657 158.999
lowerback 19.9899 2.12122 -2.74781
upperback 8.53141 1.40772 -1.92821
thorax -1.98808 0.339752 -0.774827
lowerneck -16.1976 -6.0052 -6.68709
upperneck -1.66043 -7.59872 12.6389
head 2.87675 -3.4395 4.38596
rclavicle 1.5207e-014 -3.97569e-016
rhumerus 60.4269 6.28163 -82.965
rradius 21.3819
rwrist -12.857
rhand -6.65038 -15.6586
rfingers 7.12502
rthumb 19.207 -44.7301
lclavicle 1.5207e-014 -3.97569e-016
lhumerus -29.62 -19.9567 92.7224
lradius 60.1016
lwrist -23.2097
lhand -4.35965 32.0479
lfingers 7.12502
lthumb 21.4086 420.885
rfemur -33.6916 18.5107 -9.71662
rtibia 41.3498
rfoot -8.99877 1.95251
rtoes -35.4751
lfemur -20.6037 6.28381 -3.63887
ltibia 47.3632
lfoot -13.5173 -3.53396
ltoes -18.0565
494
root 10.6086 16.2652 10.6542 -168.787 -68.7502 159.125
lowerback 19.8793 2.14613 -2.59627
upperback 8.60808 1.4702 -1.9364
thorax -1.84576 0.371241 -0.87919
lowerneck -16.5354 -6.16768 -6.94204
upperneck -1.39379 -7.80018 13.0276
head 3.05967 -3.50576 4.51918
rclavicle 2.85256e-014 -2.46493e-014
rhumerus 59.9101 5.5883 -84.2988
rradius 21.1134
rwrist -11.6359
rhand -6.13515 -15.1394
rfingers 7.12502
rthumb 19.7024 -44.1609
lclavicle 2.85256e-014 -2.46493e-014
lhumerus -29.6002 -20.0543 92.8047
lradius 59.4059
lwrist -22.0955
lhand -5.36861 32.8355
lfingers 7.12502
lthumb 20.4392 421.78
rfemur -32.6745 18.9546 -9.4807
rtibia 40.899
rfoot -9.21796 2.01711
rtoes -34.1783
lfemur -19.6027 6.19629 -3.6425
ltibia 46.7278
lfoot -13.6186 -3.65504
ltoes -16.9782
495
root 10.5179 16.3186 10.6284 -168.87 -68.9209 159.055
lowerback 19.6956 2.03323 -2.42855
upperback 8.57163 1.36228 -2.08438
thorax -1.7833 0.327406 -1.10466
lowerneck -16.1895 -6.17456 -6.86786
upperneck -1.71456 -7.82485 13.1551
head 2.91713 -3.53786 4.55438
rclavicle -3.3694e-014 -8.74653e-015
rhumerus 59.1118 5.07149 -85.6384
rradius 21.0234
rwrist -10.8309
rhand -6.01909 -14.4796
rfingers 7.12502
rthumb 19.814 -43.4897
lclavicle -3.3694e-014 -8.74653e-015
lhumerus -29.6026 -19.6225 92.4422
lradius 58.871
lwrist -22.9076
lhand -4.20397 31.9346
lfingers 7.12502
lthumb 21.5581 420.755
rfemur -31.7576 19.3785 -9.27289
rtibia 40.4807
rfoot -9.51285 1.75138
rtoes -34.0946
lfemur -18.7425 6.16855 -3.66598
ltibia 46.0298
lfoot -13.6927 -3.82422
ltoes -16.6738
496
root 10.4322 16.3717 10.6084 -168.148 -69.2538 158.397
lowerback 19.3782 1.82513 -2.47598
upperback 8.3997 1.11136 -2.24864
thorax -1.80381 0.216372 -1.19517
lowerneck -15.7778 -6.11567 -6.49174
upperneck -1.97827 -7.8044 13.0108
head 2.75042 -3.55735 4.46188
rclavicle -2.5345e-014 1.03368e-014
rhumerus 58.2659 5.61788 -84.5576
rradius 21.318
rwrist -12.3593
rhand -6.07656 -14.5021
rfingers 7.12502
rthumb 19.7588 -43.5178
lclavicle -2.5345e-014 1.03368e-014
lhumerus -29.8784 -19.2546 92.2079
lradius 58.3914
lwrist -22.853
lhand -4.22975 31.3156
lfingers 7.12502
lthumb 21.5333 420.139
rfemur -31.0347 19.7251 -9.3912
rtibia 40.0584
rfoot -9.78642 1.33554
rtoes -34.1811
lfemur -18.2577 5.89503 -3.94849
ltibia 45.2969
lfoot -13.8397 -3.5693
ltoes -18.1553
497
root 10.3436 16.4274 10.587 -167.569 -69.4688 158.028
lowerback 18.8079 1.74354 -2.6167
upperback 8.31222 1.02905 -2.251
thorax -1.60831 0.182197 -1.09166
lowerneck -15.9133 -6.20232 -6.6182
upperneck -1.75566 -7.92081 13.2116
head 2.86577 -3.59506 4.5282
rclavicle 9.34288e-015 -5.1684e-015
rhumerus 57.629 6.92779 -81.2185
rradius 22.2721
rwrist -15.9422
rhand -7.39005 -16.4143
rfingers 7.12502
rthumb 18.4956 -45.555
lclavicle 9.34288e-015 -5.1684e-015
lhumerus -29.9428 -18.739 92.1336
lradius 57.6862
lwrist -22.2867
lhand -4.72819 28.9944
lfingers 7.12502
lthumb 21.0545 417.871
rfemur -30.5543 19.9395 -9.43226
rtibia 39.6656
rfoot -10.0281 1.22394
rtoes -34.0562
lfemur -17.8447 5.70488 -4.12454
ltibia 44.5594
lfoot -13.9112 -3.43171
ltoes -19.0371
